
<svg  xmlns="http://www.w3.org/2000/svg" xmlns:xlink="http://www.w3.org/1999/xlink" x="0px"
	 y="0px" width="318px" height="209px" viewBox="0 0 318 209" enable-background="new 0 0 318 209" xml:space="preserve">
<g>
	<defs>
		<rect id="SVGID_1_" x="-50" y="-31.065" width="418.065" height="274.065"/>
	</defs>
	<clipPath id="SVGID_2_">
		<use xlink:href="#SVGID_1_"  overflow="visible"/>
	</clipPath>
	<path clip-path="url(#SVGID_2_)" fill="#9F1A37" d="M309.281,136.29h-50.514v-4.999h11.886c1.282,0,2.536-0.13,3.746-0.378
		c1.813-0.371,3.532-1.007,5.113-1.866c2.635-1.43,4.884-3.479,6.554-5.952c2.004-2.967,3.175-6.542,3.175-10.393v-9.445
		c0-0.642-0.033-1.276-0.097-1.901c-0.127-1.249-0.378-2.462-0.739-3.627c-0.362-1.163-0.835-2.278-1.407-3.331
		c-2.004-3.689-5.218-6.622-9.11-8.268c-0.556-0.235-1.126-0.444-1.708-0.625c-1.746-0.544-3.603-0.836-5.526-0.836h-42.358
		c-10.266,0-18.588,8.322-18.588,18.588v9.445c0,7.058,3.933,13.198,9.728,16.345c1.58,0.859,3.3,1.495,5.114,1.866
		c1.21,0.248,2.463,0.378,3.746,0.378h11.885v4.999h-50.513c-2.588,0-4.687,2.098-4.687,4.686v9.217
		c0,2.587,2.099,4.686,4.687,4.686h119.614c2.587,0,4.686-2.099,4.686-4.686v-9.217C313.967,138.388,311.868,136.29,309.281,136.29
		 M228.295,103.257h42.358v9.445h-42.358V103.257z"/>
	<path clip-path="url(#SVGID_2_)" fill="#9F1A37" d="M205.614,81.843h87.718c2.567,0,4.647-2.08,4.647-4.647v-9.294
		c0-2.566-2.08-4.647-4.647-4.647h-34.564v-8.292c0-2.566-2.08-4.646-4.647-4.646h-9.294c-2.565,0-4.646,2.08-4.646,4.646v8.292
		h-34.565c-2.566,0-4.646,2.081-4.646,4.647v9.294C200.968,79.763,203.048,81.843,205.614,81.843"/>
	<path clip-path="url(#SVGID_2_)" fill="#9F1A37" d="M295.639,159.818c-0.742-0.501-1.635-0.794-2.598-0.794h-13.942h-73.191
		c-2.566,0-4.647,2.081-4.647,4.647v36.941c0,2.566,2.081,4.646,4.647,4.646h9.295c2.565,0,4.646-2.08,4.646-4.646v-23h59.25v9.059
		h-47.171c-2.566,0-4.647,2.08-4.647,4.646v9.296c0,2.566,2.081,4.646,4.647,4.646h61.113c0.963,0,1.855-0.293,2.598-0.793
		c1.236-0.836,2.049-2.25,2.049-3.854v-36.941C297.688,162.067,296.875,160.653,295.639,159.818"/>
	<path clip-path="url(#SVGID_2_)" fill="#9F1A37" d="M162.11,110.431h-9.293c-2.567,0-4.646-2.08-4.646-4.647v-9.292
		c0-2.566,2.079-4.647,4.646-4.647h9.293c2.565,0,4.646,2.081,4.646,4.647v9.292C166.757,108.351,164.676,110.431,162.11,110.431"/>
	<path clip-path="url(#SVGID_2_)" fill="#9F1A37" d="M162.11,177.806h-9.293c-2.567,0-4.646-2.08-4.646-4.647v-9.292
		c0-2.565,2.079-4.646,4.646-4.646h9.293c2.565,0,4.646,2.081,4.646,4.646v9.292C166.757,175.726,164.676,177.806,162.11,177.806"/>
	<path clip-path="url(#SVGID_2_)" fill="#9F1A37" d="M28.452,122.44h83.881c2.566,0,4.647-2.08,4.647-4.646V108.5
		c0-2.567-2.081-4.647-4.647-4.647H42.394V69.837c0-2.566-2.081-4.647-4.647-4.647h-9.295c-2.566,0-4.647,2.081-4.647,4.647v47.958
		C23.805,120.36,25.886,122.44,28.452,122.44"/>
	<path clip-path="url(#SVGID_2_)" fill="#9F1A37" d="M127.209,136.29H9.703c-2.567,0-4.647,2.08-4.647,4.646v9.294
		c0,2.567,2.08,4.648,4.647,4.648h22.95v45.799c0,2.53,2.052,4.581,4.582,4.581h9.425c2.53,0,4.582-2.051,4.582-4.581v-45.799H85.67
		v45.799c0,2.53,2.052,4.581,4.582,4.581h9.424c2.531,0,4.582-2.051,4.582-4.581v-45.799h22.951c2.566,0,4.647-2.081,4.647-4.648
		v-9.294C131.856,138.37,129.775,136.29,127.209,136.29"/>
	<path clip-path="url(#SVGID_2_)" fill="#9F1A37" d="M27.01,38.9h-3.153c-0.87,0-1.576-0.706-1.576-1.576V10.626
		c0-0.916,0.346-1.826,1.032-2.434c1.316-1.164,3.203-1.039,4.349,0.109L47.5,28.137V8.954c0-0.871,0.706-1.576,1.576-1.576h3.153
		c0.871,0,1.576,0.705,1.576,1.576v26.702c0,0.915-0.346,1.823-1.031,2.429c-1.316,1.164-3.203,1.04-4.35-0.109L28.586,18.14v19.184
		C28.586,38.194,27.881,38.9,27.01,38.9"/>
	<path clip-path="url(#SVGID_2_)" fill="#9F1A37" d="M85.641,38.899H60.108c-1.741,0-3.153-1.411-3.153-3.152V10.53
		c0-1.74,1.412-3.151,3.152-3.151h23.958c1.741,0,3.152,1.411,3.152,3.152v12.664c0,1.741-1.411,3.152-3.152,3.152H67.357
		c-0.87,0-1.576-0.705-1.576-1.576V21.62c0-0.871,0.706-1.576,1.576-1.576h13.555v-6.361H63.261v18.913h22.38
		c0.871,0,1.576,0.706,1.576,1.576v3.152C87.217,38.193,86.512,38.899,85.641,38.899"/>
	<path clip-path="url(#SVGID_2_)" fill="#9F1A37" d="M93.522,38.9c-0.61,0-1.227-0.176-1.791-0.555
		c-0.883-0.593-1.362-1.635-1.362-2.698V8.954c0-0.871,0.706-1.576,1.576-1.576h3.154c0.87,0,1.576,0.705,1.576,1.576v17.337
		l13.238-17.652c1.031-1.372,3.022-1.718,4.492-0.574c0.778,0.605,1.182,1.578,1.182,2.563V26.56l14.442-18.569
		c0.534-0.687,1.524-0.811,2.211-0.276l2.488,1.935c0.688,0.534,0.811,1.524,0.277,2.211l-20.082,25.822
		c-0.948,1.22-2.666,1.593-4.066,0.795c-1.014-0.578-1.575-1.722-1.575-2.89V19.986L96.043,37.639
		C95.437,38.447,94.495,38.9,93.522,38.9"/>
	<path clip-path="url(#SVGID_2_)" fill="#9F1A37" d="M295.489,38.899h-25.532c-1.741,0-3.152-1.411-3.152-3.152V10.53
		c0-1.74,1.411-3.151,3.151-3.151h23.956c1.742,0,3.153,1.411,3.153,3.152v12.664c0,1.741-1.411,3.152-3.153,3.152h-16.706
		c-0.87,0-1.576-0.705-1.576-1.576V21.62c0-0.871,0.706-1.576,1.576-1.576h13.555v-6.361h-17.651v18.913h22.38
		c0.871,0,1.576,0.706,1.576,1.576v3.152C297.065,38.193,296.36,38.899,295.489,38.899"/>
	<path clip-path="url(#SVGID_2_)" fill="#9F1A37" d="M178.944,8.954v11.033h-18.911V8.954c0-0.871-0.706-1.576-1.576-1.576h-3.153
		c-0.87,0-1.576,0.705-1.576,1.576v28.37c0,0.87,0.706,1.576,1.576,1.576h3.153c0.87,0,1.576-0.706,1.576-1.576V26.292h18.911
		v11.033c0,0.87,0.706,1.576,1.576,1.576h3.153c0.87,0,1.576-0.706,1.576-1.576V8.954c0-0.871-0.706-1.576-1.576-1.576h-3.153
		C179.65,7.378,178.944,8.083,178.944,8.954"/>
	<path clip-path="url(#SVGID_2_)" fill="#9F1A37" d="M144.867,16.834h-3.152c-0.871,0-1.576-0.706-1.576-1.576v-3.152
		c0-0.871,0.705-1.576,1.576-1.576h3.152c0.871,0,1.576,0.705,1.576,1.576v3.152C146.443,16.129,145.738,16.834,144.867,16.834"/>
	<path clip-path="url(#SVGID_2_)" fill="#9F1A37" d="M144.867,35.748h-3.152c-0.871,0-1.576-0.706-1.576-1.576V31.02
		c0-0.871,0.705-1.576,1.576-1.576h3.152c0.871,0,1.576,0.705,1.576,1.576v3.152C146.443,35.042,145.738,35.748,144.867,35.748"/>
	<path clip-path="url(#SVGID_2_)" fill="#9F1A37" d="M262.004,7.795c-1.416-0.79-3.133-0.383-4.063,0.857l-13.233,17.645V10.713
		c0-1.167-0.555-2.313-1.566-2.895c-1.396-0.804-3.121-0.432-4.07,0.79l-18.659,23.99h-25.724V13.693H213.2v13.719
		c0,0.87,0.706,1.575,1.575,1.575h3.15c0.87,0,1.576-0.705,1.576-1.575V10.543c0-1.74-1.411-3.151-3.151-3.151h-24.813
		c-1.74,0-3.15,1.411-3.15,3.151v25.206c0,1.74,1.41,3.151,3.15,3.151h30.414c0.972,0,1.89-0.449,2.486-1.216l13.969-17.958v15.859
		c0,1.179,0.57,2.334,1.601,2.909c1.415,0.789,3.137,0.388,4.07-0.854l13.233-17.645v17.33c0,0.87,0.705,1.575,1.575,1.575h3.151
		c0.87,0,1.575-0.705,1.575-1.575V10.717C263.613,9.532,263.039,8.372,262.004,7.795"/>
</g>
</svg>
