
<svg  xmlns="http://www.w3.org/2000/svg" xmlns:xlink="http://www.w3.org/1999/xlink" x="0px" y="0px"
	 width="400px" height="80px" viewBox="0 0 400 80" enable-background="new 0 0 400 80" xml:space="preserve">
<g>
	
		<path fill="none" stroke="#333333" stroke-width="6" stroke-linecap="round" stroke-linejoin="round" stroke-miterlimit="10" stroke-dasharray="10" d="
		M7.461,53.038c0,0,21.78,16.11,42.539-2.96c9.668-8.883,14.195-10.845,22.431-10.041"/>
	<path fill="none" stroke="#333333" stroke-width="6" stroke-linecap="round" stroke-linejoin="round" stroke-miterlimit="10" d="
		M25.828,6.733c0,0-9.698,33.486,21.205,45.156C58.818,56.34,68.589,61.996,67.49,72.118"/>
	
		<rect x="6.945" y="6.826" fill="none" stroke="#333333" stroke-width="6" stroke-linecap="round" stroke-linejoin="round" stroke-miterlimit="10" width="66" height="65.906"/>
	
		<path fill="none" stroke="#333333" stroke-width="6" stroke-linecap="round" stroke-linejoin="round" stroke-miterlimit="10" stroke-dasharray="10" d="
		M7.758,17.104c6.708,13.771,27.591,19.403,40.125,10.984c12.813-8.605,21.563-5.355,25.063-0.605"/>
</g>
<g>
	<g>
		
			<polyline fill="none" stroke="#333333" stroke-width="6" stroke-linecap="round" stroke-linejoin="round" stroke-miterlimit="10" points="
			93.139,72.732 93.139,23.066 122.139,23.066 		"/>
	</g>
	
		<line fill="none" stroke="#333333" stroke-width="6" stroke-linecap="round" stroke-linejoin="round" stroke-miterlimit="10" x1="87.139" y1="72.732" x2="153.139" y2="72.732"/>
	
		<line fill="none" stroke="#333333" stroke-width="6" stroke-linecap="round" stroke-linejoin="round" stroke-miterlimit="10" x1="103.063" y1="35.066" x2="103.063" y2="62.732"/>
	
		<line fill="none" stroke="#333333" stroke-width="6" stroke-linecap="round" stroke-linejoin="round" stroke-miterlimit="10" x1="112.923" y1="35.066" x2="112.923" y2="62.732"/>
	<g>
		
			<polyline fill="none" stroke="#333333" stroke-width="6" stroke-linecap="round" stroke-linejoin="round" stroke-miterlimit="10" points="
			123.139,72.732 123.139,6.733 147.139,6.733 147.139,72.732 		"/>
		
			<line fill="none" stroke="#333333" stroke-width="6" stroke-linecap="round" stroke-linejoin="round" stroke-miterlimit="10" x1="132.139" y1="18.733" x2="138.139" y2="18.733"/>
		
			<line fill="none" stroke="#333333" stroke-width="6" stroke-linecap="round" stroke-linejoin="round" stroke-miterlimit="10" x1="132.139" y1="30.733" x2="138.139" y2="30.733"/>
	</g>
</g>
<g>
	<g>
		<path fill="none" stroke="#333333" stroke-width="6" stroke-linecap="round" stroke-linejoin="round" stroke-miterlimit="10" d="
			M179.367,49.698c0.638-1.183,4.168-6.283,10.181-6.283h19.263c3.984,0.063,7.297,4.394,7.71,8.5l0,0"/>
		<path fill="none" stroke="#333333" stroke-width="6" stroke-linecap="round" stroke-linejoin="round" stroke-miterlimit="10" d="
			M196.611,55.951h10.781c2.055,0,4.062-0.626,5.752-1.794l13.594-9.394c2.782-1.923,6.746-0.873,8.602,2.008l0,0
			c1.855,2.883,1.268,7.076-1.516,8.998L217.97,68.957c-1.606,1.109-3.484,1.727-5.414,1.775h-33.188"/>
		
			<rect x="164.498" y="42.732" fill="none" stroke="#333333" stroke-width="6" stroke-linecap="round" stroke-linejoin="round" stroke-miterlimit="10" width="14" height="30"/>
	</g>
	<g>
		
			<polyline fill="none" stroke="#333333" stroke-width="6" stroke-linecap="round" stroke-linejoin="round" stroke-miterlimit="10" points="
			226.049,24.8 200.454,6.733 174.858,24.8 		"/>
		<g>
			
				<line fill="none" stroke="#333333" stroke-width="6" stroke-linecap="round" stroke-linejoin="round" stroke-miterlimit="10" x1="183.447" y1="19.75" x2="183.447" y2="44.75"/>
			
				<line fill="none" stroke="#333333" stroke-width="6" stroke-linecap="round" stroke-linejoin="round" stroke-miterlimit="10" x1="218.447" y1="19.75" x2="218.447" y2="44.75"/>
		</g>
	</g>
</g>
<g>
	
		<polyline fill="none" stroke="#333333" stroke-width="6" stroke-linecap="round" stroke-linejoin="round" stroke-miterlimit="10" points="
		314.739,29.902 281.739,6.608 248.739,29.902 	"/>
	
		<polyline fill="none" stroke="#333333" stroke-width="6" stroke-linecap="round" stroke-linejoin="round" stroke-miterlimit="10" points="
		249.031,72.607 272.409,72.607 272.409,45.204 291.653,45.204 291.653,72.607 315.031,72.607 	"/>
	<g>
		
			<line fill="none" stroke="#333333" stroke-width="6" stroke-linecap="round" stroke-linejoin="round" stroke-miterlimit="10" x1="254.447" y1="26.75" x2="254.447" y2="72.75"/>
		
			<line fill="none" stroke="#333333" stroke-width="6" stroke-linecap="round" stroke-linejoin="round" stroke-miterlimit="10" x1="308.447" y1="26.75" x2="308.447" y2="72.75"/>
	</g>
</g>
<polyline fill="none" stroke="#333333" stroke-width="6" stroke-linecap="round" stroke-linejoin="round" stroke-miterlimit="10" points="
	376.09,27.518 362.149,17.677 348.207,27.518 "/>
<polyline fill="none" stroke="#333333" stroke-width="6" stroke-linecap="round" stroke-linejoin="round" stroke-miterlimit="10" points="
	353.265,24.311 353.265,38.359 371.031,38.359 371.031,24.311 "/>
<g>
	<defs>
		<rect id="SVGID_1_" x="327" y="1.24" width="70.52" height="77.521"/>
	</defs>
	<clipPath id="SVGID_2_">
		<use xlink:href="#SVGID_1_"  overflow="visible"/>
	</clipPath>
	
		<rect x="329.999" y="4.24" clip-path="url(#SVGID_2_)" fill="none" stroke="#333333" stroke-width="6" stroke-linecap="round" stroke-linejoin="round" stroke-miterlimit="10" width="64.521" height="71.521"/>
	<use xlink:href="#SVGID_1_"  overflow="visible" fill="none" stroke="#333333" stroke-miterlimit="10"/>
</g>
<line fill="none" stroke="#333333" stroke-width="6" stroke-linecap="round" stroke-linejoin="round" stroke-miterlimit="10" x1="344.094" y1="49.311" x2="380.427" y2="49.311"/>
<line fill="none" stroke="#333333" stroke-width="6" stroke-linecap="round" stroke-linejoin="round" stroke-miterlimit="10" x1="344.094" y1="59.942" x2="380.427" y2="59.942"/>
</svg>
