<svg version="1.1" id="레이어_1" xmlns="http://www.w3.org/2000/svg" xmlns:xlink="http://www.w3.org/1999/xlink" x="0px"
	 y="0px" viewBox="0 0 200 200" style="enable-background:new 0 0 200 200;" xml:space="preserve">
<style type="text/css">
	.st0{fill:#3D3736;}
	.st1{fill:#6F8CFF;}
</style>
<g>
	<path class="st0" d="M72.36,100.96h-0.22c-3.42,0-6.2-2.78-6.2-6.2s2.78-6.2,6.2-6.2h0.22c1.1,0,2,0.9,2,2s-0.9,2-2,2h-0.22
		c-1.21,0-2.2,0.99-2.2,2.2s0.99,2.2,2.2,2.2h0.22c1.1,0,2,0.9,2,2S73.46,100.96,72.36,100.96z"/>
	<g>
		<g>
			<g>
				<g>
					<g>
						<path class="st0" d="M142.24,164.96H33.82c-1.1,0-2-0.9-2-2V144.5c0-1,0.73-1.84,1.72-1.98c36.16-5.15,72.83-5.15,108.99,0
							c0.99,0.14,1.72,0.98,1.72,1.98v18.45C144.24,164.06,143.35,164.96,142.24,164.96z M35.82,160.96h104.42v-14.71
							c-34.66-4.77-69.77-4.77-104.42,0V160.96z"/>
						<g>
							<path class="st0" d="M42.44,194.14c-1.1,0-2-0.9-2-2v-27.93c0-1.1,0.9-2,2-2s2,0.9,2,2v27.93
								C44.44,193.25,43.55,194.14,42.44,194.14z"/>
							<path class="st0" d="M133.62,194.14c-1.1,0-2-0.9-2-2v-27.93c0-1.1,0.9-2,2-2s2,0.9,2,2v27.93
								C135.62,193.25,134.72,194.14,133.62,194.14z"/>
						</g>
					</g>
					<path class="st0" d="M88.03,115.29c-9.25,0-16.78-7.53-16.78-16.79V83.72c0-1.1,0.9-2,2-2s2,0.9,2,2v14.79
						c0,7.05,5.74,12.79,12.78,12.79c7.05,0,12.79-5.74,12.79-12.79V83.72c0-1.1,0.9-2,2-2s2,0.9,2,2v14.79
						C104.82,107.76,97.29,115.29,88.03,115.29z"/>
					<path class="st0" d="M88.03,127.13c-5.52,0-10.01-4.49-10.01-10.01v-6.02c0-1.1,0.9-2,2-2s2,0.9,2,2v6.02
						c0,3.31,2.7,6.01,6.01,6.01c3.31,0,6.01-2.7,6.01-6.01v-6.02c0-1.1,0.9-2,2-2s2,0.9,2,2v6.02
						C98.04,122.64,93.55,127.13,88.03,127.13z"/>
				</g>
				<g>
					<path class="st0" d="M51.3,142.4c-0.07,0-0.14,0-0.21-0.01c-1.1-0.12-1.9-1.1-1.78-2.2l1.02-9.73
						c0.63-5.98,4.96-10.99,10.79-12.46l17.62-4.45c1.07-0.26,2.16,0.38,2.43,1.45c0.27,1.07-0.38,2.16-1.45,2.43l-17.62,4.45
						c-4.21,1.06-7.34,4.68-7.79,9l-1.02,9.73C53.18,141.63,52.31,142.4,51.3,142.4z"/>
					<path class="st0" d="M124.77,142.4c-1.01,0-1.88-0.76-1.99-1.79l-1.02-9.73c-0.45-4.32-3.58-7.94-7.79-9l-17.62-4.45
						c-1.07-0.27-1.72-1.36-1.45-2.43c0.27-1.07,1.36-1.71,2.43-1.45l17.62,4.45c5.83,1.47,10.17,6.48,10.79,12.46l1.02,9.73
						c0.12,1.1-0.68,2.08-1.78,2.2C124.91,142.39,124.83,142.4,124.77,142.4z"/>
				</g>
			</g>
			<g>
				<path class="st1" d="M70.63,92.48c0,0,10.13-2.74,10.95-12.05c0,0,2.19-3.83,7.12-1.92c4.93,1.92,10.4,9.86,17.52,11.23
					c0,0,2.46-12.59-5.75-17.8c-8.21-5.2-22.18-4.11-24.64,3.01C75.84,74.96,66.25,78.52,70.63,92.48z"/>
				<path class="st0" d="M70.63,94.48c-0.85,0-1.64-0.55-1.91-1.4c-4.07-12.96,2.98-18.16,5.54-19.57c1.17-2.53,3.52-4.48,6.87-5.65
					c6.3-2.21,14.7-1.22,20.41,2.4c9.26,5.87,6.75,19.3,6.64,19.87c-0.21,1.08-1.25,1.79-2.34,1.58c-4.71-0.91-8.59-4.21-12.02-7.13
					c-2.13-1.82-4.15-3.53-5.85-4.2c-2.61-1.02-3.98,0.18-4.46,0.77c-1.25,10.15-11.91,13.14-12.37,13.26
					C70.98,94.46,70.81,94.48,70.63,94.48z M88.46,70.69c-2.12,0-4.18,0.31-6,0.94c-1.74,0.61-3.98,1.79-4.73,3.98
					c-0.2,0.56-0.63,1.01-1.19,1.22c-0.28,0.11-6.85,2.82-4.54,13.01c2.63-1.19,7.11-4.01,7.6-9.58c0.03-0.29,0.11-0.57,0.26-0.82
					c1.05-1.84,4.41-4.8,9.58-2.79c2.34,0.91,4.6,2.84,7,4.88c2.58,2.2,5.23,4.45,8.09,5.62c0.23-3.52-0.06-10.32-5.11-13.51
					C96.39,71.72,92.33,70.69,88.46,70.69z"/>
			</g>
			<g>
				<polygon class="st1" points="54.2,51.41 33.68,39.57 13.16,51.41 13.16,90.64 54.2,90.64 				"/>
				<path class="st1" d="M54.2,92.64H13.16c-1.1,0-2-0.9-2-2V51.41c0-0.71,0.38-1.38,1-1.73l20.52-11.85c0.62-0.36,1.38-0.36,2,0
					L55.2,49.68c0.62,0.36,1,1.02,1,1.73v39.23C56.2,91.74,55.3,92.64,54.2,92.64z M15.16,88.64H52.2V52.57L33.68,41.88L15.16,52.57
					V88.64z"/>
			</g>
			<path class="st0" d="M6.87,57.05c-0.69,0-1.36-0.36-1.73-1c-0.55-0.96-0.22-2.18,0.73-2.73l26.81-15.48c0.62-0.36,1.38-0.36,2,0
				l26.81,15.48c0.96,0.55,1.28,1.78,0.73,2.73c-0.55,0.96-1.78,1.28-2.73,0.73l-25.81-14.9L7.87,56.78
				C7.55,56.96,7.21,57.05,6.87,57.05z"/>
			<g>
				<g>
					<rect x="109.84" y="10.06" class="st1" width="81.29" height="57.62"/>
					<path class="st1" d="M191.14,69.67h-81.29c-1.1,0-2-0.9-2-2V10.06c0-1.1,0.9-2,2-2h81.29c1.1,0,2,0.9,2,2v57.62
						C193.14,68.78,192.24,69.67,191.14,69.67z M111.84,65.67h77.29V12.06h-77.29V65.67z"/>
				</g>
				<g>
					<path class="st0" d="M124.29,63.34c-3.8,0-6.88-3.09-6.88-6.88s3.09-6.88,6.88-6.88s6.88,3.09,6.88,6.88
						S128.09,63.34,124.29,63.34z M124.29,53.57c-1.59,0-2.88,1.29-2.88,2.88s1.29,2.88,2.88,2.88s2.88-1.29,2.88-2.88
						S125.88,53.57,124.29,53.57z"/>
					<path class="st0" d="M124.29,45.75c-3.8,0-6.88-3.09-6.88-6.88s3.09-6.88,6.88-6.88s6.88,3.09,6.88,6.88
						S128.09,45.75,124.29,45.75z M124.29,35.98c-1.59,0-2.88,1.29-2.88,2.88s1.29,2.88,2.88,2.88s2.88-1.29,2.88-2.88
						S125.88,35.98,124.29,35.98z"/>
					<path class="st0" d="M124.29,28.17c-3.8,0-6.88-3.09-6.88-6.88s3.09-6.88,6.88-6.88s6.88,3.09,6.88,6.88
						S128.09,28.17,124.29,28.17z M124.29,18.4c-1.59,0-2.88,1.29-2.88,2.88s1.29,2.88,2.88,2.88s2.88-1.29,2.88-2.88
						S125.88,18.4,124.29,18.4z"/>
					<g>
						<path class="st0" d="M181.57,58.45h-44.09c-1.1,0-2-0.9-2-2s0.9-2,2-2h44.09c1.1,0,2,0.9,2,2S182.67,58.45,181.57,58.45z"/>
						<path class="st0" d="M181.57,40.87h-44.09c-1.1,0-2-0.9-2-2s0.9-2,2-2h44.09c1.1,0,2,0.9,2,2S182.67,40.87,181.57,40.87z"/>
						<path class="st0" d="M181.57,23.28h-44.09c-1.1,0-2-0.9-2-2s0.9-2,2-2h44.09c1.1,0,2,0.9,2,2S182.67,23.28,181.57,23.28z"/>
					</g>
				</g>
			</g>
		</g>
		<path class="st1" d="M159.26,114.17h-40.68c-1.1,0-2-0.9-2-2s0.9-2,2-2h40.68c12.08,0,21.91-9.83,21.91-21.91V67.92
			c0-1.1,0.9-2,2-2s2,0.9,2,2v20.33C185.17,102.54,173.55,114.17,159.26,114.17z"/>
	</g>
	<path class="st0" d="M104.1,100.96h-0.22c-1.1,0-2-0.9-2-2s0.9-2,2-2h0.22c1.21,0,2.2-0.99,2.2-2.2s-0.99-2.2-2.2-2.2h-0.22
		c-1.1,0-2-0.9-2-2s0.9-2,2-2h0.22c3.42,0,6.2,2.78,6.2,6.2S107.52,100.96,104.1,100.96z"/>
</g>
</svg>
