<svg version="1.1" id="레이어_1" xmlns="http://www.w3.org/2000/svg" xmlns:xlink="http://www.w3.org/1999/xlink" x="0px"
	 y="0px" viewBox="0 0 200 200" style="enable-background:new 0 0 200 200;" xml:space="preserve">
<style type="text/css">
	.st0{fill:#6F8CFF;}
	.st1{fill:#3D3736;}
</style>
<g>
	<g>
		<g>
			<g>
				<g>
					<polygon class="st0" points="139.93,38.17 163.85,38.17 139.93,14.25 					"/>
					<path class="st1" d="M163.85,40.17h-23.92c-1.1,0-2-0.9-2-2V14.25c0-0.81,0.49-1.54,1.23-1.85c0.75-0.31,1.61-0.14,2.18,0.43
						l23.92,23.92c0.57,0.57,0.74,1.43,0.43,2.18C165.39,39.68,164.66,40.17,163.85,40.17z M141.93,36.17h17.09l-17.09-17.09V36.17z
						"/>
				</g>
				<path class="st1" d="M163.85,186.33H21.63c-1.1,0-2-0.9-2-2V14.25c0-1.1,0.9-2,2-2h118.3c0.53,0,1.04,0.21,1.41,0.59
					l23.92,23.92c0.38,0.38,0.59,0.88,0.59,1.41v39.18c0,1.1-0.9,2-2,2s-2-0.9-2-2V39l-22.75-22.75H23.63v166.08h138.22v-49.04
					c0-1.1,0.9-2,2-2s2,0.9,2,2v51.04C165.85,185.43,164.96,186.33,163.85,186.33z"/>
			</g>
			<g>
				<path class="st0" d="M58.78,29.26L35.89,48.38h8.95v21.44h7.01v-9.17c0-3.83,3.1-6.93,6.93-6.93h0c3.83,0,6.93,3.1,6.93,6.93
					v9.17h7.01V48.38h8.95L58.78,29.26z"/>
				<path class="st0" d="M72.72,71.83h-7.01c-1.1,0-2-0.9-2-2v-9.17c0-2.72-2.21-4.93-4.93-4.93c-2.72,0-4.93,2.21-4.93,4.93v9.17
					c0,1.1-0.9,2-2,2h-7.01c-1.1,0-2-0.9-2-2V50.38h-6.95c-0.84,0-1.59-0.53-1.88-1.32c-0.29-0.79-0.05-1.68,0.6-2.22L57.5,27.72
					c0.74-0.62,1.82-0.62,2.56,0l22.89,19.13c0.65,0.54,0.88,1.43,0.6,2.22c-0.29,0.79-1.04,1.32-1.88,1.32h-6.95v19.44
					C74.72,70.93,73.83,71.83,72.72,71.83z M67.71,67.83h3.01V48.38c0-1.1,0.9-2,2-2h3.44L58.78,31.86L41.41,46.38h3.44
					c1.1,0,2,0.9,2,2v19.44h3.01v-7.17c0-4.92,4-8.93,8.93-8.93s8.93,4,8.93,8.93V67.83z"/>
			</g>
		</g>
		<path class="st1" d="M141.29,88.16h-97.1c-1.1,0-2-0.9-2-2s0.9-2,2-2h97.1c1.1,0,2,0.9,2,2S142.4,88.16,141.29,88.16z"/>
		<path class="st1" d="M141.29,105.3h-97.1c-1.1,0-2-0.9-2-2s0.9-2,2-2h97.1c1.1,0,2,0.9,2,2S142.4,105.3,141.29,105.3z"/>
		<path class="st1" d="M98.63,122.43H44.19c-1.1,0-2-0.9-2-2s0.9-2,2-2h54.44c1.1,0,2,0.9,2,2S99.73,122.43,98.63,122.43z"/>
		<path class="st1" d="M117.31,139.57H44.19c-1.1,0-2-0.9-2-2s0.9-2,2-2h73.12c1.1,0,2,0.9,2,2S118.41,139.57,117.31,139.57z"/>
		<path class="st1" d="M76.4,156.71H44.19c-1.1,0-2-0.9-2-2s0.9-2,2-2H76.4c1.1,0,2,0.9,2,2S77.5,156.71,76.4,156.71z"/>
	</g>
	<g>
		<g>
			<path class="st1" d="M104.34,167.35c-0.52,0-1.04-0.21-1.41-0.59c-0.48-0.48-0.69-1.17-0.54-1.84l3.99-18.29
				c0.08-0.38,0.27-0.72,0.54-0.99l66.56-66.56c2.78-2.78,7.29-2.78,10.07,0l7.06,7.06c2.78,2.78,2.78,7.29,0,10.07l-66.56,66.56
				c-0.27,0.27-0.61,0.46-0.99,0.54l-18.29,3.99C104.62,167.33,104.48,167.35,104.34,167.35z M110.16,148.06l-3.2,14.67l14.67-3.2
				l66.14-66.14c0.59-0.59,0.91-1.37,0.91-2.21s-0.32-1.62-0.91-2.21l-7.06-7.06c-1.22-1.22-3.2-1.22-4.42,0L110.16,148.06z"/>
			<path class="st1" d="M99.1,172.59c-0.51,0-1.02-0.2-1.41-0.59c-0.78-0.78-0.78-2.05,0-2.83l5.24-5.24c0.78-0.78,2.05-0.78,2.83,0
				s0.78,2.05,0,2.83l-5.24,5.24C100.12,172.4,99.61,172.59,99.1,172.59z"/>
			<g>
				
					<rect x="166.23" y="85.82" transform="matrix(0.7071 -0.7071 0.7071 0.7071 -18.2424 150.4243)" class="st0" width="12.45" height="22.82"/>
				<path class="st0" d="M176.13,111.7c-0.51,0-1.02-0.2-1.41-0.59l-16.14-16.14c-0.38-0.38-0.59-0.88-0.59-1.41
					s0.21-1.04,0.59-1.41l8.8-8.8c0.78-0.78,2.05-0.78,2.83,0l16.14,16.14c0.38,0.38,0.59,0.88,0.59,1.41
					c0,0.53-0.21,1.04-0.59,1.41l-8.8,8.8C177.15,111.51,176.64,111.7,176.13,111.7z M162.81,93.56l13.31,13.31l5.97-5.97
					l-13.31-13.31L162.81,93.56z"/>
			</g>
		</g>
		<path class="st1" d="M137.82,160.45c-0.51,0-1.02-0.2-1.41-0.59c-0.78-0.78-0.78-2.05,0-2.83l47-47l-22.55-22.55
			c-0.78-0.78-0.78-2.05,0-2.83c0.78-0.78,2.05-0.78,2.83,0l23.96,23.96c0.38,0.38,0.59,0.88,0.59,1.41s-0.21,1.04-0.59,1.41
			l-48.42,48.42C138.84,160.25,138.33,160.45,137.82,160.45z"/>
	</g>
</g>
</svg>
