<svg version="1.1" id="레이어_1" xmlns="http://www.w3.org/2000/svg" xmlns:xlink="http://www.w3.org/1999/xlink" x="0px"
	 y="0px" viewBox="0 0 200 200" style="enable-background:new 0 0 200 200;" xml:space="preserve">
<style type="text/css">
	.st0{fill:#6F8CFF;}
	.st1{fill:#3D3736;}
</style>
<g>
	<g>
		<g>
			<g>
				<g>
					<polygon class="st0" points="157.83,107.25 145.29,100.01 132.75,107.25 132.75,133.48 157.83,133.48 					"/>
					<path class="st0" d="M157.83,135.48h-25.08c-1.1,0-2-0.9-2-2v-26.23c0-0.71,0.38-1.38,1-1.73l12.54-7.24
						c0.62-0.36,1.38-0.36,2,0l12.54,7.24c0.62,0.36,1,1.02,1,1.73v26.23C159.83,134.58,158.94,135.48,157.83,135.48z
						 M134.75,131.48h21.08V108.4l-10.54-6.09l-10.54,6.08V131.48z"/>
				</g>
				<path class="st1" d="M126.82,112.67c-0.69,0-1.36-0.36-1.73-1c-0.55-0.96-0.22-2.18,0.73-2.73l18.47-10.66
					c0.62-0.36,1.38-0.36,2,0l18.47,10.66c0.96,0.55,1.28,1.78,0.73,2.73c-0.55,0.96-1.77,1.28-2.73,0.73l-17.47-10.09l-17.47,10.09
					C127.5,112.58,127.16,112.67,126.82,112.67z"/>
			</g>
			<g>
				<g>
					<g>
						<path class="st0" d="M42.65,91.21h7.94v-7.35h0.36c-6.71-4.09-11.2-11.45-11.2-19.88V48.97c2.8,1.19,5.88,1.85,9.11,1.85
							c7.97,0,15.01-4.01,19.2-10.13h0.07c4.02,5.85,10.64,9.77,18.19,10.09v13.2c0,8.43-4.49,15.79-11.2,19.88h0.36v7.35h7.94
							c1.88,0,3.71,0.19,5.49,0.54c5.78-6.27,9.31-14.64,9.31-23.84V50.19c0-19.43-15.75-35.19-35.19-35.19h0
							c-19.43,0-35.19,15.75-35.19,35.19v17.72c0,9.2,3.53,17.57,9.31,23.84C38.94,91.4,40.77,91.21,42.65,91.21z"/>
						<path class="st0" d="M88.91,93.75c-0.13,0-0.26-0.01-0.39-0.04c-1.68-0.33-3.4-0.5-5.1-0.5h-7.94c-1.1,0-2-0.9-2-2v-6.21
							c-0.13-0.18-0.22-0.38-0.29-0.6c-0.24-0.86,0.12-1.78,0.88-2.25c6.41-3.91,10.24-10.7,10.24-18.17V52.63
							c-6.28-0.76-12.11-3.89-16.22-8.7c-4.78,5.61-11.8,8.89-19.24,8.89c-2.43,0-4.81-0.34-7.11-1.02v12.18
							c0,7.47,3.83,14.26,10.24,18.17c0.77,0.47,1.13,1.39,0.88,2.25c-0.06,0.22-0.16,0.42-0.29,0.6v6.21c0,1.1-0.9,2-2,2h-7.94
							c-1.7,0-3.42,0.17-5.1,0.5c-0.68,0.14-1.39-0.09-1.86-0.61c-6.35-6.88-9.84-15.83-9.84-25.19V50.19
							c0-20.5,16.68-37.19,37.19-37.19c20.5,0,37.19,16.68,37.19,37.19v17.72c0,9.36-3.5,18.31-9.84,25.19
							C90,93.52,89.46,93.75,88.91,93.75z M77.49,89.21h5.94c1.58,0,3.17,0.13,4.74,0.37c5.21-6.03,8.06-13.68,8.06-21.67V50.19
							c0-18.3-14.89-33.19-33.19-33.19c-18.3,0-33.19,14.89-33.19,33.19v17.72c0,7.99,2.85,15.65,8.06,21.67
							c1.57-0.25,3.16-0.37,4.74-0.37h5.94v-4.5c-6.81-4.74-10.84-12.38-10.84-20.72V48.97c0-0.67,0.34-1.3,0.9-1.67
							c0.56-0.37,1.27-0.43,1.89-0.17c2.64,1.12,5.44,1.69,8.33,1.69c7.01,0,13.58-3.46,17.56-9.26c0.37-0.54,0.99-0.87,1.65-0.87
							s1.34,0.32,1.71,0.87c3.77,5.49,9.99,8.94,16.63,9.23c1.07,0.05,1.91,0.93,1.91,2v13.2c0,8.35-4.02,15.98-10.84,20.72V89.21z"
							/>
					</g>
					<path class="st1" d="M63.03,89.27c-13.94,0-25.29-11.34-25.29-25.29V48.97c0-0.67,0.34-1.3,0.9-1.67
						c0.56-0.37,1.27-0.43,1.89-0.17c2.64,1.12,5.44,1.69,8.33,1.69c7.01,0,13.58-3.46,17.56-9.26c0.37-0.54,0.99-0.87,1.65-0.87
						s1.34,0.32,1.71,0.87c3.77,5.49,9.99,8.94,16.63,9.23c1.07,0.05,1.91,0.93,1.91,2v13.2C88.32,77.93,76.98,89.27,63.03,89.27z
						 M41.75,51.81v12.18c0,11.74,9.55,21.29,21.29,21.29c11.74,0,21.29-9.55,21.29-21.29V52.63c-6.28-0.76-12.11-3.89-16.22-8.7
						c-4.78,5.61-11.8,8.89-19.24,8.89C46.43,52.82,44.05,52.48,41.75,51.81z"/>
					<path class="st1" d="M63.03,108.64c-7.97,0-14.45-6.48-14.45-14.45V83.86c0-1.1,0.9-2,2-2s2,0.9,2,2v10.33
						c0,5.76,4.69,10.45,10.45,10.45c5.76,0,10.45-4.69,10.45-10.45V83.86c0-1.1,0.9-2,2-2s2,0.9,2,2v10.33
						C77.49,102.16,71,108.64,63.03,108.64z"/>
					<path class="st1" d="M105.14,103.44c-0.58,0-1.15-0.25-1.54-0.73c-4.99-6.04-12.35-9.5-20.18-9.5h-7.94c-1.1,0-2-0.9-2-2
						s0.9-2,2-2h7.94c9.02,0,17.5,3.99,23.26,10.96c0.7,0.85,0.58,2.11-0.27,2.82C106.04,103.29,105.59,103.44,105.14,103.44z"/>
					<path class="st1" d="M14.48,183.57c-1.1,0-2-0.9-2-2v-62.2c0-16.63,13.53-30.16,30.16-30.16h7.94c1.1,0,2,0.9,2,2s-0.9,2-2,2
						h-7.94c-14.43,0-26.16,11.74-26.16,26.16v62.2C16.48,182.68,15.59,183.57,14.48,183.57z"/>
				</g>
				<path class="st1" d="M63.03,172.18c-1.1,0-2-0.9-2-2v-63.54c0-1.1,0.9-2,2-2s2,0.9,2,2v63.54
					C65.03,171.28,64.14,172.18,63.03,172.18z"/>
				<g>
					<path class="st1" d="M93.09,172.18H32.98c-1.09,0-1.98-0.87-2-1.96l-0.49-23.16c-5.83-8.26-4.24-17.62-3.18-23.87l0.16-0.93
						c0.57-3.4,0.43-4.71,0.35-5.08c-0.42-0.58-0.51-1.38-0.17-2.07c0.49-0.99,1.69-1.39,2.68-0.9c1.64,0.82,1.96,3.42,1.08,8.7
						l-0.16,0.94c-1.03,6.04-2.43,14.32,2.82,21.33c0.25,0.33,0.39,0.74,0.4,1.16l0.46,21.83h56.19l0.47-21.83
						c0.01-0.42,0.15-0.82,0.4-1.16c5.26-7.01,3.85-15.28,2.82-21.33l-0.16-0.94c-0.88-5.28-0.56-7.88,1.08-8.7
						c0.99-0.5,2.19-0.09,2.68,0.9c0.34,0.69,0.25,1.48-0.17,2.07c-0.07,0.37-0.21,1.67,0.35,5.08l0.16,0.93
						c1.06,6.24,2.65,15.61-3.18,23.87l-0.49,23.16C95.06,171.31,94.17,172.18,93.09,172.18z M97.53,117.81
						C97.53,117.81,97.53,117.81,97.53,117.81C97.53,117.81,97.53,117.81,97.53,117.81z M28.54,117.81
						C28.54,117.81,28.54,117.81,28.54,117.81C28.54,117.81,28.54,117.81,28.54,117.81z"/>
				</g>
			</g>
			<path class="st1" d="M184.56,183.57h-78.55c-1.1,0-2-0.9-2-2v-97.2c0-1.1,0.9-2,2-2h78.55c1.1,0,2,0.9,2,2v97.2
				C186.56,182.68,185.67,183.57,184.56,183.57z M108.02,179.57h74.55v-93.2h-74.55V179.57z"/>
			<path class="st1" d="M156.21,169.4H120.7c-1.1,0-2-0.9-2-2s0.9-2,2-2h35.51c1.1,0,2,0.9,2,2S157.32,169.4,156.21,169.4z"/>
			<path class="st1" d="M169.88,158.76H120.7c-1.1,0-2-0.9-2-2s0.9-2,2-2h49.18c1.1,0,2,0.9,2,2S170.99,158.76,169.88,158.76z"/>
			<path class="st1" d="M169.88,148.13H120.7c-1.1,0-2-0.9-2-2s0.9-2,2-2h49.18c1.1,0,2,0.9,2,2S170.99,148.13,169.88,148.13z"/>
		</g>
		<path class="st1" d="M26.07,183.57c-0.35,0-0.71-0.09-1.04-0.29c-0.94-0.57-1.25-1.8-0.67-2.75l6.91-11.39
			c0.57-0.94,1.8-1.25,2.75-0.67c0.94,0.57,1.25,1.8,0.67,2.75l-6.91,11.39C27.41,183.23,26.75,183.57,26.07,183.57z"/>
		<path class="st1" d="M99.34,183.57c-0.68,0-1.34-0.34-1.71-0.96l-6.91-11.39c-0.57-0.94-0.27-2.17,0.67-2.75
			c0.95-0.57,2.17-0.27,2.75,0.67l6.91,11.39c0.57,0.94,0.27,2.17-0.67,2.75C100.05,183.48,99.7,183.57,99.34,183.57z"/>
	</g>
	<path class="st1" d="M63.12,78.22c-3.64,0-7.06-1.42-9.63-3.99c-0.78-0.78-0.78-2.05,0-2.83c0.78-0.78,2.05-0.78,2.83,0
		c1.82,1.82,4.23,2.82,6.8,2.82c2.57,0,4.98-1,6.8-2.82c0.78-0.78,2.05-0.78,2.83,0c0.78,0.78,0.78,2.05,0,2.83
		C70.18,76.8,66.76,78.22,63.12,78.22z"/>
</g>
</svg>
