<svg version="1.1" id="레이어_1" xmlns="http://www.w3.org/2000/svg" xmlns:xlink="http://www.w3.org/1999/xlink" x="0px"
	 y="0px" viewBox="0 0 200 200" style="enable-background:new 0 0 200 200;" xml:space="preserve">
<style type="text/css">
	.st0{fill:#6F8CFF;}
	.st1{fill:#3D3736;}
</style>
<g>
	<g>
		<g>
			<g>
				<g>
					<g>
						<path class="st0" d="M48.28,146.56h1.23c-5.97-3.35-10.01-9.74-10.01-17.07v-7.9c2.36,0.11,17.48,0.29,23.37-12.57
							c0,0,2.34,9.55,15.78,12.02v8.45c0,7.34-4.04,13.72-10.01,17.07h1.23v6.99h16.49v-32.78c0-14.19-11.5-25.69-25.69-25.69h-3.17
							c-14.19,0-25.69,11.5-25.69,25.69v32.78h16.49V146.56z"/>
						<path class="st0" d="M86.35,155.55H69.86c-1.1,0-2-0.9-2-2v-5.15c-0.56-0.24-1-0.72-1.16-1.34c-0.23-0.88,0.16-1.8,0.96-2.25
							c5.55-3.11,8.99-8.99,8.99-15.33v-6.83c-7.91-1.88-11.97-6.13-13.96-9.3c-6.04,8.72-16.37,10.1-21.19,10.24v5.88
							c0,6.34,3.45,12.22,8.99,15.33c0.79,0.45,1.19,1.37,0.96,2.25c-0.16,0.62-0.6,1.1-1.16,1.34v5.15c0,1.1-0.9,2-2,2H31.79
							c-1.1,0-2-0.9-2-2v-32.78c0-15.27,12.42-27.69,27.69-27.69h3.17c15.27,0,27.69,12.42,27.69,27.69v32.78
							C88.35,154.65,87.46,155.55,86.35,155.55z M71.86,151.55h12.49v-30.78c0-13.07-10.63-23.69-23.69-23.69h-3.17
							c-13.07,0-23.69,10.63-23.69,23.69v30.78h12.49v-4.7c-5.48-4.04-8.79-10.48-8.79-17.37v-7.9c0-0.55,0.22-1.07,0.62-1.45
							c0.4-0.38,0.92-0.57,1.47-0.55c2.65,0.12,16.16,0.16,21.45-11.41c0.35-0.77,1.16-1.24,2.01-1.16
							c0.85,0.08,1.55,0.69,1.75,1.52c0.08,0.33,2.3,8.34,14.2,10.53c0.95,0.17,1.64,1,1.64,1.97v8.45c0,6.89-3.31,13.33-8.79,17.37
							V151.55z"/>
					</g>
					<g>
						<path class="st1" d="M59.07,169.89c-7.05,0-12.79-5.74-12.79-12.79v-10.54c0-1.1,0.9-2,2-2s2,0.9,2,2v10.54
							c0,4.84,3.94,8.79,8.79,8.79s8.79-3.94,8.79-8.79v-10.54c0-1.1,0.9-2,2-2s2,0.9,2,2v10.54
							C71.86,164.15,66.12,169.89,59.07,169.89z"/>
						<g>
							<path class="st1" d="M102.78,185.87c-1.1,0-2-0.9-2-2v-8.77c0-10.52-8.56-19.08-19.08-19.08H69.86c-1.1,0-2-0.9-2-2
								s0.9-2,2-2H81.7c12.73,0,23.08,10.35,23.08,23.08v8.77C104.78,184.98,103.88,185.87,102.78,185.87z"/>
							<path class="st1" d="M15.36,185.87c-1.1,0-2-0.9-2-2v-8.77c0-12.73,10.35-23.08,23.08-23.08h11.84c1.1,0,2,0.9,2,2
								s-0.9,2-2,2H36.45c-10.52,0-19.08,8.56-19.08,19.08v8.77C17.36,184.98,16.47,185.87,15.36,185.87z"/>
						</g>
					</g>
					<path class="st1" d="M59.07,151.06c-11.9,0-21.58-9.68-21.58-21.58v-7.9c0-0.55,0.22-1.07,0.62-1.45
						c0.4-0.38,0.92-0.57,1.47-0.55c2.65,0.12,16.16,0.16,21.45-11.41c0.35-0.77,1.16-1.24,2.01-1.16c0.84,0.08,1.54,0.68,1.75,1.5
						c0.1,0.37,2.33,8.36,14.21,10.54c0.95,0.17,1.64,1,1.64,1.97v8.45C80.65,141.38,70.97,151.06,59.07,151.06z M41.5,123.6v5.88
						c0,9.69,7.88,17.58,17.58,17.58s17.58-7.88,17.58-17.58v-6.83c-7.91-1.88-11.97-6.13-13.96-9.3
						C56.65,122.08,46.32,123.46,41.5,123.6z"/>
				</g>
			</g>
			<path class="st1" d="M185.44,148.44H94.82c-1.1,0-2-0.9-2-2V18.92c0-1.1,0.9-2,2-2h90.63c1.1,0,2,0.9,2,2v127.52
				C187.44,147.55,186.55,148.44,185.44,148.44z M96.82,144.44h86.63V20.92H96.82V144.44z"/>
			<g>
				<g>
					<polygon class="st0" points="131.15,37.36 121.49,31.79 111.84,37.36 111.84,56.31 131.15,56.31 					"/>
					<path class="st0" d="M131.15,58.31h-19.31c-1.1,0-2-0.9-2-2V37.36c0-0.71,0.38-1.38,1-1.73l9.66-5.58c0.62-0.36,1.38-0.36,2,0
						l9.66,5.58c0.62,0.36,1,1.02,1,1.73v18.95C133.15,57.41,132.25,58.31,131.15,58.31z M113.84,54.31h15.31V38.52l-7.66-4.42
						l-7.66,4.42V54.31z"/>
				</g>
				<path class="st1" d="M108.8,41.12c-0.69,0-1.36-0.36-1.73-1c-0.55-0.96-0.22-2.18,0.73-2.73l12.69-7.33c0.62-0.36,1.38-0.36,2,0
					l12.69,7.33c0.96,0.55,1.28,1.78,0.73,2.73c-0.55,0.96-1.78,1.29-2.73,0.73l-11.69-6.75l-11.69,6.75
					C109.48,41.03,109.14,41.12,108.8,41.12z"/>
			</g>
			<path class="st1" d="M171.95,73.51h-63.64c-1.1,0-2-0.9-2-2s0.9-2,2-2h63.64c1.1,0,2,0.9,2,2S173.06,73.51,171.95,73.51z"/>
			<path class="st1" d="M171.95,84.83h-63.64c-1.1,0-2-0.9-2-2s0.9-2,2-2h63.64c1.1,0,2,0.9,2,2S173.06,84.83,171.95,84.83z"/>
			<path class="st1" d="M162,96.14h-53.7c-1.1,0-2-0.9-2-2s0.9-2,2-2H162c1.1,0,2,0.9,2,2S163.11,96.14,162,96.14z"/>
			<path class="st1" d="M171.95,107.46h-63.64c-1.1,0-2-0.9-2-2s0.9-2,2-2h63.64c1.1,0,2,0.9,2,2S173.06,107.46,171.95,107.46z"/>
			<path class="st0" d="M151.9,121.05c-3.89,3.19-3.95,9.78-0.3,13.18c3.99,3.71,10.78,3.05,14.12-1.18
				c1.61-2.05,2.41-4.74,2.22-7.34c-0.18-2.41-1.25-6.6-4.26-6.75c-3.26-0.16-3.66,3.86-3.61,6.21c0.06,3.01,0.92,6.18,3.34,8.15
				c2.57,2.1,5.95,2.33,8.65,0.31c2.77-2.08,3.66-5.46,5.94-7.92c1.64-1.77-1-4.42-2.65-2.65c-1.4,1.5-2.32,3.29-3.38,5.03
				c-0.83,1.37-2.04,3.06-3.77,3.23c-1.69,0.17-3.17-1.35-3.77-2.78c-0.34-0.81-0.51-1.7-0.57-2.57c-0.04-0.54-0.04-1.09-0.03-1.63
				c0.01-0.45,0.18-1.04,0.13-1.47c0,0,0.09-0.25,0.08-0.27c0.01-0.03,0.02-0.06,0.03-0.09c-0.29,0.04-0.59,0.09-0.88,0.13
				c-0.04,0.15,0.42,0.77,0.49,0.94c0.33,0.77,0.51,1.63,0.54,2.46c0.06,1.6-0.33,3.23-1.29,4.54c-1.83,2.49-5.76,3.14-8.28,1.31
				c-2.68-1.95-2.55-6.17-0.08-8.19c0.78-0.64,0.67-1.99,0-2.65C153.78,120.27,152.69,120.4,151.9,121.05L151.9,121.05z"/>
		</g>
		<path class="st1" d="M142.05,178.64H103.4c-1.1,0-2-0.9-2-2s0.9-2,2-2h38.65c9.05,0,16.41-7.36,16.41-16.41V148.1c0-1.1,0.9-2,2-2
			s2,0.9,2,2v10.12C162.46,169.48,153.31,178.64,142.05,178.64z"/>
	</g>
	<g>
		<path class="st1" d="M55.63,65.82H41.5c-1.1,0-2-0.9-2-2v-11.6c0-3.06-1.27-5.99-3.58-8.24c-4.02-3.92-5.97-9.38-5.35-14.98
			c0.92-8.32,7.62-15.03,15.93-15.95c5.16-0.57,10.3,1.07,14.14,4.5c3.83,3.43,6.03,8.35,6.03,13.5c0,4.92-1.95,9.52-5.48,12.96
			c-2.3,2.23-3.56,5.15-3.56,8.22v11.6C57.63,64.93,56.73,65.82,55.63,65.82z M43.5,61.82h10.13v-9.6c0-4.16,1.7-8.1,4.78-11.09
			c2.75-2.68,4.27-6.26,4.27-10.09c0-4.01-1.71-7.84-4.7-10.52c-3.03-2.71-6.94-3.95-11.03-3.5c-6.47,0.72-11.69,5.94-12.4,12.41
			c-0.48,4.37,1.04,8.63,4.17,11.68c3.09,3.01,4.79,6.95,4.79,11.1V61.82z"/>
		<g>
			<path class="st1" d="M69.05,83.63H28.08c-1.1,0-2-0.9-2-2V69.48c0-1.1,0.9-2,2-2h40.98c1.1,0,2,0.9,2,2v12.15
				C71.05,82.73,70.16,83.63,69.05,83.63z M30.08,79.63h36.98v-8.15H30.08V79.63z"/>
			<g>
				<rect x="25.7" y="62.12" class="st0" width="45.72" height="12.15"/>
				<path class="st0" d="M71.42,76.27H25.7c-1.1,0-2-0.9-2-2V62.12c0-1.1,0.9-2,2-2h45.72c1.1,0,2,0.9,2,2v12.15
					C73.42,75.38,72.53,76.27,71.42,76.27z M27.7,72.27h41.72v-8.15H27.7V72.27z"/>
			</g>
		</g>
		<g>
			<path class="st1" d="M54.25,31.04c0-3.14-2.55-5.69-5.69-5.69c-3.14,0-5.69,2.55-5.69,5.69s2.55,5.69,5.69,5.69
				C51.71,36.73,54.25,34.19,54.25,31.04z"/>
			<path class="st1" d="M48.56,38.73c-4.24,0-7.69-3.45-7.69-7.69c0-4.24,3.45-7.69,7.69-7.69s7.69,3.45,7.69,7.69
				C56.25,35.28,52.8,38.73,48.56,38.73z M48.56,27.35c-2.03,0-3.69,1.66-3.69,3.69c0,2.03,1.65,3.69,3.69,3.69s3.69-1.65,3.69-3.69
				C52.25,29.01,50.6,27.35,48.56,27.35z"/>
		</g>
	</g>
</g>
</svg>
